<?xml version="1.0" standalone="no"?>
<!DOCTYPE svg PUBLIC "-//W3C//DTD SVG 20010904//EN"
 "http://www.w3.org/TR/2001/REC-SVG-20010904/DTD/svg10.dtd">
<svg version="1.0" xmlns="http://www.w3.org/2000/svg"
 width="384.000000pt" height="131.000000pt" viewBox="0 0 384.000000 131.000000"
 preserveAspectRatio="xMidYMid meet">

<g transform="translate(0.000000,131.000000) scale(0.100000,-0.100000)"
fill="#000000" stroke="none">
<path d="M1 1133 c1 -104 4 -158 8 -131 4 26 9 50 13 53 9 9 -3 -88 -13 -100
-4 -6 -8 -71 -8 -145 l0 -135 22 30 c28 39 149 169 161 174 5 2 6 -4 1 -15 -4
-11 -13 -38 -19 -62 -7 -26 -15 -41 -23 -38 -6 3 -15 -4 -18 -15 -4 -10 -12
-19 -19 -19 -30 0 -56 -40 -56 -88 0 -60 -12 -81 -34 -63 -15 12 -16 -14 -16
-283 l0 -296 60 0 c56 0 60 2 75 30 9 17 23 30 33 30 15 -1 15 -2 1 -13 -27
-21 -19 -42 18 -44 l33 -3 0 55 c0 30 4 55 10 55 9 0 24 61 22 93 0 10 5 16
11 14 7 -2 11 -17 10 -33 -2 -25 -1 -26 5 -6 12 38 27 20 27 -32 1 -30 6 -51
13 -54 14 -4 16 -29 3 -34 -5 -2 -13 -15 -16 -30 -6 -24 -4 -28 13 -28 11 0
23 6 25 13 4 10 6 10 6 0 1 -10 35 -13 135 -13 l135 0 4 53 3 52 2 -52 2 -53
124 0 c110 0 125 2 129 17 4 16 5 16 6 1 1 -15 23 -17 241 -18 132 0 240 2
240 6 0 3 -7 12 -15 20 -16 17 -21 39 -6 30 5 -4 17 -3 26 0 15 6 15 8 0 25
-11 11 -14 25 -10 38 4 14 2 21 -7 21 -10 0 -9 3 2 9 18 12 33 3 26 -15 -3 -8
-1 -14 4 -14 5 0 11 17 13 38 l4 37 1 -42 c1 -25 -3 -43 -10 -45 -10 -4 -10
-10 0 -32 7 -15 8 -24 2 -21 -16 10 -11 -4 9 -24 19 -19 19 -18 30 3 7 12 10
14 7 3 -3 -9 -1 -17 4 -17 5 0 12 11 16 25 10 39 34 31 34 -10 0 -33 2 -35 31
-35 34 0 69 31 69 60 0 9 9 25 20 35 17 15 24 16 46 7 l25 -12 -24 -33 c-13
-17 -27 -38 -31 -44 -6 -10 224 -13 1099 -13 l1105 0 0 655 0 655 -1261 0
-1261 0 26 -30 c14 -17 30 -50 37 -73 6 -23 15 -58 21 -78 12 -42 8 -71 -9
-77 -8 -2 -13 7 -14 25 -1 26 -2 25 -14 -12 -8 -22 -14 -35 -14 -28 -1 7 -7
10 -15 7 -7 -3 -16 2 -19 10 -4 11 -1 16 11 17 11 0 9 3 -8 10 -23 10 -24 11
-7 23 9 7 17 21 17 30 0 10 5 14 10 11 16 -10 11 -43 -7 -48 -17 -4 -17 -5 0
-6 24 -1 32 24 18 55 -8 17 -8 23 0 19 6 -4 14 -17 19 -29 8 -19 9 -18 7 8 -1
23 -9 32 -35 43 -50 21 -122 18 -177 -6 -51 -23 -71 -26 -79 -13 -9 16 18 84
45 113 l27 29 -330 0 c-259 0 -329 -3 -325 -12 2 -7 11 -11 18 -9 8 3 34 6 59
7 25 2 37 1 28 -2 -10 -3 -18 -12 -18 -20 0 -8 -3 -13 -7 -12 -11 3 -53 -25
-53 -35 0 -4 6 -5 13 -1 8 5 8 2 -2 -9 -7 -9 -11 -17 -7 -17 4 0 0 -10 -8 -22
-7 -13 -13 -33 -12 -45 3 -24 -31 -38 -65 -28 -21 7 -25 -5 -8 -22 7 -7 7 -13
0 -17 -12 -8 -35 30 -26 44 3 6 2 10 -3 10 -11 0 -17 -22 -27 -92 -4 -27 -11
-48 -16 -48 -13 0 -11 44 4 59 9 11 9 12 0 7 -20 -11 -4 55 18 80 11 11 19 26
19 33 0 7 5 9 12 5 7 -4 8 -3 4 5 -4 6 8 33 28 60 58 78 52 81 -139 81 -175 0
-175 0 -175 -53 0 -20 4 -22 51 -18 46 3 54 0 85 -30 19 -18 33 -42 33 -53 -1
-21 -1 -21 -6 -1 -3 11 -17 33 -31 48 -24 25 -33 28 -81 26 -41 -2 -55 1 -63
14 -16 30 -26 9 -33 -73 -4 -44 -11 -80 -17 -80 -5 0 -7 8 -4 18 2 9 7 46 11
82 3 36 9 78 12 94 3 17 1 26 -5 22 -5 -3 -15 -50 -22 -103 -15 -124 -33 -159
-24 -48 4 44 9 82 13 85 3 3 7 20 8 38 2 30 0 32 -32 32 l-35 0 1 -177z m694
137 c3 -6 -1 -7 -9 -4 -18 7 -21 14 -7 14 6 0 13 -4 16 -10z m60 -61 c22 -41
37 -161 22 -175 -3 -4 -17 0 -29 8 -13 9 -42 19 -66 23 -23 4 -45 12 -48 17
-7 10 16 8 70 -9 12 -3 16 -1 12 6 -4 6 -3 11 3 11 5 0 12 -8 15 -17 2 -10 4
-5 3 11 -1 16 -8 32 -16 34 -8 3 -11 0 -7 -7 4 -6 0 -14 -8 -17 -22 -8 -68 4
-61 16 3 6 2 10 -4 10 -6 0 -8 7 -5 15 4 10 19 14 51 12 31 -1 47 2 51 11 3
11 0 12 -17 3 -18 -10 -21 -9 -21 6 0 15 -2 16 -11 3 -8 -12 -10 -12 -7 -1 2
8 12 15 21 17 10 1 14 -2 11 -8 -5 -7 -2 -8 5 -4 9 6 8 13 -5 27 -12 14 -20
16 -30 8 -17 -14 -12 17 6 34 10 10 11 9 5 -2 -5 -9 -3 -12 6 -9 8 3 13 11 11
18 -5 21 27 -9 43 -41z m-398 -51 c-3 -8 -6 -5 -6 6 -1 11 2 17 5 13 3 -3 4
-12 1 -19z m-134 5 c-13 -2 -33 -2 -45 0 -13 2 -3 4 22 4 25 0 35 -2 23 -4z
m935 -23 c-16 -25 -1 -54 30 -58 15 -2 28 6 43 30 15 25 19 27 14 9 -6 -18 -4
-22 6 -15 12 7 12 5 1 -9 -8 -9 -19 -15 -25 -14 -8 1 -11 -14 -10 -43 1 -25
-1 -39 -3 -32 -3 6 -12 12 -19 12 -7 0 -15 9 -18 20 -4 15 0 20 16 21 16 1 13
4 -11 10 -38 11 -60 52 -41 75 18 21 31 17 17 -6z m-896 -32 c-22 -22 -22 -22
-39 -3 -17 18 -17 18 0 6 14 -11 20 -11 32 -1 9 7 13 20 10 29 -5 13 -4 14 7
3 10 -10 8 -16 -10 -34z m75 -16 c-16 -15 -17 -15 -17 1 0 10 5 15 10 12 7 -4
9 3 5 22 -5 27 -5 27 7 5 9 -19 9 -26 -5 -40z m773 32 c0 -8 -4 -14 -9 -14 -6
0 -11 -15 -13 -32 l-4 -33 -8 28 c-5 18 -4 38 3 53 11 26 31 24 31 -2z m73 -5
c-4 -13 -9 -17 -15 -11 -11 11 -3 32 12 32 4 0 6 -9 3 -21z m-1005 -8 c14 11
13 9 -2 -9 -11 -12 -20 -21 -20 -20 -1 2 -8 12 -16 23 -14 19 -14 19 3 6 14
-11 20 -11 35 0z m316 -97 c2 -38 7 -78 11 -89 5 -11 5 -17 0 -13 -4 4 -22 0
-39 -9 -31 -16 -31 -15 -13 4 12 14 17 37 17 85 0 115 19 132 24 22z m613 54
c-3 -8 -6 -5 -6 6 -1 11 2 17 5 13 3 -3 4 -12 1 -19z m-962 -28 c10 -11 16
-20 13 -20 -3 0 -13 9 -23 20 -10 11 -16 20 -13 20 3 0 13 -9 23 -20z m135 17
c0 -2 -10 -12 -22 -23 l-23 -19 19 23 c18 21 26 27 26 19z m260 -7 c0 -5 -2
-10 -4 -10 -3 0 -8 5 -11 10 -3 6 -1 10 4 10 6 0 11 -4 11 -10z m70 -24 c0 -3
-4 -8 -10 -11 -5 -3 -10 -1 -10 4 0 6 5 11 10 11 6 0 10 -2 10 -4z m137 -28
c-3 -7 -5 -2 -5 12 0 14 2 19 5 13 2 -7 2 -19 0 -25z m691 -32 c-3 -55 -5 -63
-17 -51 -11 11 -11 22 -1 64 6 28 14 51 16 51 3 0 3 -29 2 -64z m-1008 50 c0
-3 -4 -8 -10 -11 -5 -3 -10 -1 -10 4 0 6 5 11 10 11 6 0 10 -2 10 -4z m260
-17 c0 -5 -4 -9 -10 -9 -5 0 -10 7 -10 16 0 8 5 12 10 9 6 -3 10 -10 10 -16z
m32 -21 c-8 -8 -9 -4 -5 13 4 13 8 18 11 10 2 -7 -1 -18 -6 -23z m-647 13 c3
-5 1 -12 -5 -16 -5 -3 -10 1 -10 9 0 18 6 21 15 7z m311 -117 l-4 -95 32 -31
c27 -26 28 -28 5 -14 -14 9 -28 14 -31 11 -6 -6 -7 -1 -13 123 -4 64 -2 102 4
102 6 0 9 -37 7 -96z m330 51 c-27 -35 -46 -38 -46 -9 0 8 -4 13 -8 10 -5 -3
-9 1 -9 9 0 12 4 12 20 -2 18 -17 20 -17 41 8 31 39 33 25 2 -16z m458 -23
c17 -5 30 -16 32 -26 2 -12 -2 -16 -12 -12 -12 5 -14 1 -8 -16 6 -20 5 -21
-10 -9 -9 7 -16 10 -16 6 0 -4 -7 -2 -15 5 -9 7 -13 21 -10 31 3 9 0 21 -6 25
-7 4 -9 3 -6 -3 4 -6 0 -13 -8 -17 -22 -8 -29 13 -14 41 l13 24 16 -21 c8 -11
28 -24 44 -28z m-264 -12 c0 -8 -7 -2 -15 14 -19 36 -19 45 0 20 8 -10 14 -26
15 -34z m425 39 c-4 -6 2 -13 14 -16 11 -3 18 -9 15 -14 -3 -5 -16 -1 -30 8
-19 12 -22 18 -12 24 17 12 20 11 13 -2z m-987 -34 c-3 -3 -9 2 -12 12 -6 14
-5 15 5 6 7 -7 10 -15 7 -18z m206 1 c-6 -16 -24 -23 -24 -8 0 10 22 33 27 28
2 -2 1 -11 -3 -20z m294 -2 c0 -17 -3 -22 -8 -13 -5 6 -6 18 -3 26 8 19 11 16
11 -13z m-604 -36 c-8 -69 -27 -90 -22 -26 2 36 0 44 -9 36 -9 -8 -13 -7 -13
3 0 12 16 24 48 38 1 0 0 -23 -4 -51z m56 40 c0 -20 -18 -43 -27 -35 -4 5 -1
12 7 17 10 7 11 10 3 10 -7 0 -13 5 -13 10 0 6 7 10 15 10 8 0 15 -6 15 -12z
m584 -4 c3 -8 2 -12 -4 -9 -6 3 -10 10 -10 16 0 14 7 11 14 -7z m64 -12 c5
-31 -15 -27 -21 3 -3 16 0 24 7 22 6 -2 12 -13 14 -25z m-528 -3 c-7 -11 -14
-19 -16 -16 -7 7 7 37 17 37 6 0 5 -9 -1 -21z m215 1 c3 -6 -1 -7 -9 -4 -18 7
-21 14 -7 14 6 0 13 -4 16 -10z m357 -12 c-7 -7 -12 -8 -12 -2 0 14 12 26 19
19 2 -3 -1 -11 -7 -17z m578 -19 c0 -4 -16 -40 -36 -81 -31 -63 -42 -72 -18
-14 4 12 4 17 -3 13 -5 -3 -10 0 -10 8 0 18 13 20 21 3 3 -7 3 1 0 17 -4 23
-3 27 5 15 6 -8 11 -12 11 -8 0 3 3 15 6 25 5 15 4 16 -6 3 -10 -12 -11 -11
-7 8 7 29 1 24 -21 -17 -47 -86 -97 -162 -100 -149 -3 17 -69 51 -83 43 -5 -4
-9 -2 -9 4 0 18 21 23 38 8 29 -24 49 -27 66 -8 15 16 13 19 -20 34 -19 10
-40 15 -45 11 -5 -3 2 11 16 32 14 20 25 41 25 45 0 13 14 11 36 -7 18 -15 18
-15 -5 -8 -14 4 -21 2 -17 -4 3 -5 15 -12 26 -15 12 -3 18 -1 14 5 -4 6 2 8
16 3 15 -5 20 -4 16 4 -4 6 -12 11 -17 11 -5 0 -21 7 -34 16 -39 26 -18 36 26
13 39 -20 41 -20 55 -2 7 10 14 21 14 25 0 10 40 -24 40 -33z m-516 19 c-3 -5
-3 -26 1 -45 5 -28 9 -33 16 -22 7 10 9 8 7 -11 -4 -31 -21 -30 -30 2 l-6 23
-1 -22 c-1 -13 -5 -23 -10 -23 -6 0 -9 -12 -8 -26 1 -15 -4 -29 -12 -32 -11
-4 -13 6 -9 49 3 30 9 63 13 73 6 14 5 17 -3 12 -16 -10 -15 0 2 17 15 15 49
19 40 5z m83 -28 c15 -30 33 -41 53 -30 12 6 17 5 17 -5 0 -8 -4 -12 -9 -9 -4
3 -8 0 -8 -6 0 -6 -10 -10 -22 -8 -13 2 -31 19 -46 47 -15 27 -19 42 -10 39 7
-3 18 -15 25 -28z m-853 -5 c-6 -16 -24 -21 -24 -7 0 11 11 22 21 22 5 0 6 -7
3 -15z m451 -5 c3 -5 15 -10 26 -10 12 0 19 -7 19 -20 0 -18 -1 -18 -30 -2
-16 9 -32 23 -35 30 -5 14 11 16 20 2z m408 -56 c10 -13 23 -21 29 -18 7 4 8
2 4 -4 -12 -19 -21 -14 -49 25 -15 21 -27 33 -27 27 0 -6 9 -23 20 -36 10 -14
16 -29 12 -33 -4 -5 -2 -5 5 -1 6 3 14 2 18 -4 4 -6 11 -7 17 -4 7 4 8 2 4 -4
-10 -16 6 -15 24 1 8 6 5 1 -6 -13 -12 -14 -19 -32 -17 -40 4 -13 3 -13 -6 0
-10 13 -12 13 -21 0 -15 -23 -13 -27 28 -73 47 -51 77 -129 60 -157 -6 -10
-24 -25 -40 -34 l-28 -17 22 37 c18 31 20 40 10 68 -7 18 -12 40 -12 49 0 9
-5 17 -11 17 -6 0 -8 -7 -5 -17 4 -9 9 -32 12 -52 l4 -36 -40 44 c-32 35 -38
47 -30 61 14 26 13 27 -15 34 -35 9 -46 35 -34 80 11 40 12 41 42 24 22 -12
21 -12 -8 -18 l-30 -6 33 -5 c40 -7 44 13 7 37 -25 16 -34 44 -15 44 7 0 7 7
0 20 -6 12 -8 31 -4 43 7 21 7 21 18 3 6 -10 19 -29 29 -42z m486 18 c33 -35
120 -195 136 -250 6 -21 4 -23 -14 -17 -12 4 -21 2 -21 -4 0 -6 11 -11 25 -11
28 0 44 -25 27 -42 -8 -8 -15 -6 -27 6 -9 9 -13 16 -10 16 4 0 -3 9 -16 20
l-24 20 21 6 c24 6 23 39 -1 48 -8 3 -11 13 -8 27 4 14 2 20 -4 16 -6 -4 -13
3 -16 15 -4 12 -9 20 -11 17 -3 -3 -1 -21 4 -40 9 -31 8 -32 -6 -14 -8 11 -19
35 -24 55 -5 19 -19 51 -31 70 -47 76 -59 100 -47 100 6 0 27 -17 47 -38z
m-999 14 c0 -3 -4 -8 -10 -11 -5 -3 -10 -1 -10 4 0 6 5 11 10 11 6 0 10 -2 10
-4z m615 -5 c3 -5 1 -12 -4 -15 -5 -3 -11 1 -15 9 -6 16 9 21 19 6z m389 -146
c5 -25 4 -36 -2 -30 -11 12 -42 108 -42 127 1 23 37 -56 44 -97z m-579 26 c-4
-22 -13 -45 -21 -52 -12 -10 -12 -6 1 24 8 20 15 46 15 58 0 12 3 20 6 16 3
-3 3 -24 -1 -46z m-788 17 c-3 -8 -6 -5 -6 6 -1 11 2 17 5 13 3 -3 4 -12 1
-19z m20 -20 c-3 -8 -6 -5 -6 6 -1 11 2 17 5 13 3 -3 4 -12 1 -19z m42 15 c0
-5 -4 -17 -9 -28 -8 -18 -9 -17 -9 8 -1 15 4 27 9 27 6 0 10 -3 9 -7z m18 -30
c-3 -10 -5 -4 -5 12 0 17 2 24 5 18 2 -7 2 -21 0 -30z m250 -65 c-3 -7 -5 -2
-5 12 0 14 2 19 5 13 2 -7 2 -19 0 -25z m688 2 c-18 -20 -18 -20 32 -20 28 0
71 -3 97 -6 l47 -7 -7 28 c-5 20 -4 26 5 21 6 -4 11 -14 11 -22 0 -8 5 -14 10
-14 6 0 10 -4 10 -10 0 -6 -6 -9 -12 -8 -10 2 -12 -11 -10 -46 l4 -49 -39 7
c-21 4 -53 7 -70 7 -20 -1 -33 3 -33 11 0 9 -3 9 -12 0 -7 -7 -22 -12 -34 -12
-19 0 -22 6 -26 46 -3 45 24 115 39 100 3 -3 -2 -15 -12 -26z m-515 -34 c-15
-15 -44 -17 -31 -2 6 7 18 13 26 13 11 0 12 -4 5 -11z m725 -41 c-2 -14 1 -25
6 -25 5 0 9 -7 9 -15 0 -8 -4 -15 -9 -15 -9 0 -12 8 -27 63 -3 10 0 17 9 17 9
0 13 -9 12 -25z m-735 11 c0 -2 -12 -11 -27 -20 l-28 -17 24 20 c23 21 31 25
31 17z m734 -91 c4 -11 -2 -15 -22 -14 -17 1 -20 3 -9 6 9 2 15 9 12 14 -4 5
-2 9 3 9 6 0 12 -7 16 -15z m320 -7 c9 -35 7 -41 -8 -29 -14 12 -18 51 -5 51
4 0 9 -10 13 -22z m-678 -5 c10 -10 12 -19 6 -21 -6 -2 -8 -10 -5 -18 3 -7 -2
-17 -11 -20 -25 -10 -31 3 -12 25 16 17 16 20 1 35 -9 9 -12 16 -6 16 5 0 17
-8 27 -17z m234 -15 l65 -3 3 -61 c2 -50 -1 -63 -18 -79 -17 -15 -24 -16 -45
-7 -22 10 -25 9 -25 -8 0 -15 7 -20 25 -20 32 0 40 -19 23 -51 -12 -22 -20
-24 -80 -25 -38 0 -68 1 -68 2 0 2 18 8 39 14 39 10 40 11 29 43 -6 17 -16 35
-22 39 -7 5 -6 8 3 8 8 0 11 6 7 16 -3 8 -1 24 4 34 12 23 -14 34 -57 24 -25
-7 -27 -6 -14 10 12 15 12 16 -5 10 -16 -6 -16 -4 2 9 12 9 27 30 34 47 10 25
14 28 24 16 7 -10 34 -16 76 -18z m180 -3 c5 3 14 -13 21 -35 7 -22 16 -40 21
-40 4 0 8 -17 7 -37 0 -31 -2 -34 -9 -18 -7 17 -9 15 -9 -12 -1 -19 -6 -33
-13 -34 -10 0 -10 -2 0 -6 7 -3 12 -25 12 -62 0 -50 -2 -57 -20 -57 -11 0 -20
6 -20 14 0 7 -4 11 -9 8 -13 -9 0 78 13 86 8 5 7 8 -1 8 -7 0 -13 5 -13 10 0
6 7 10 15 10 8 0 15 5 15 10 0 6 -6 10 -14 10 -8 0 -16 7 -20 15 -3 8 -1 15 4
15 6 0 10 5 10 11 0 5 -4 7 -10 4 -5 -3 -10 1 -10 9 0 9 5 16 12 16 7 0 6 6
-4 18 -22 25 -29 62 -12 62 8 0 15 6 15 13 1 6 3 4 6 -6 2 -9 8 -15 13 -12z
m-1357 -74 c4 0 23 -5 42 -12 30 -11 34 -16 28 -38 -8 -34 -8 -34 -32 -21 -12
6 -21 20 -21 32 0 29 -7 20 -13 -17 -4 -29 -3 -30 32 -32 20 -1 45 -4 56 -7
11 -2 22 -5 24 -5 2 -1 -2 -7 -9 -15 -10 -13 -16 -12 -47 5 -19 11 -37 18 -40
16 -7 -7 -7 -39 1 -89 3 -27 4 -48 0 -48 -5 0 -68 35 -83 46 -2 2 3 14 11 26
11 18 14 46 10 120 -5 116 6 158 22 86 6 -27 14 -48 19 -47z m472 68 c3 -4 -3
-10 -13 -14 -22 -6 -54 3 -47 15 6 10 54 10 60 -1z m831 -2 c5 -15 12 -137 7
-137 -9 0 -31 62 -35 103 -4 36 -2 47 9 47 7 0 16 -6 19 -13z m-1226 -32 c0
-21 -17 -28 -37 -15 -15 9 -14 10 6 4 21 -5 23 -3 18 15 -3 12 -1 19 4 15 5
-3 9 -11 9 -19z m650 -6 c0 -16 -4 -28 -9 -25 -5 3 -12 -2 -15 -11 -5 -12 -10
-13 -18 -5 -8 8 -5 17 13 32 13 12 17 18 9 14 -13 -7 -13 -5 -1 9 19 23 21 22
21 -14z m908 -6 c-5 -49 14 -207 26 -223 10 -13 9 -13 -6 -1 -17 12 -18 10
-18 -27 0 -23 4 -44 10 -47 5 -3 9 -16 8 -29 -3 -36 -38 -22 -38 15 0 16 -4
29 -8 29 -5 0 -16 44 -25 97 -17 103 -13 125 23 116 17 -5 19 -2 12 17 -10 26
-4 80 9 80 5 0 8 -12 7 -27z m-852 1 c-3 -9 -6 -20 -6 -25 0 -5 -7 -9 -16 -9
-11 0 -14 5 -10 16 3 9 6 20 6 25 0 5 7 9 16 9 11 0 14 -5 10 -16z m40 -18
c11 -12 12 -26 5 -68 -5 -29 -9 -43 -10 -31 0 12 -5 25 -11 28 -10 6 -14 85
-4 85 3 0 12 -6 20 -14z m-110 -43 c-10 -10 -19 5 -10 18 6 11 8 11 12 0 2 -7
1 -15 -2 -18z m-178 10 c-10 -2 -26 -2 -35 0 -10 3 -2 5 17 5 19 0 27 -2 18
-5z m47 -3 c3 -5 1 -10 -4 -10 -6 0 -11 5 -11 10 0 6 2 10 4 10 3 0 8 -4 11
-10z m1135 -14 c0 -2 -7 -7 -16 -10 -8 -3 -12 -2 -9 4 6 10 25 14 25 6z
m-1023 -40 c-6 -19 -22 -16 -33 8 -11 23 -10 24 13 13 13 -6 22 -15 20 -21z
m-164 17 c-7 -2 -21 -2 -30 0 -10 3 -4 5 12 5 17 0 24 -2 18 -5z m204 1 c-3
-3 -12 -4 -19 -1 -8 3 -5 6 6 6 11 1 17 -2 13 -5z m68 -111 c-16 -27 -16 -27
-11 -3 3 14 6 45 7 70 l1 45 10 -42 c7 -33 6 -48 -7 -70z m65 68 c0 -21 -6
-30 -21 -34 -18 -5 -20 -2 -15 16 3 12 6 28 6 35 0 6 7 12 15 12 10 0 15 -10
15 -29z m379 -51 c-1 -44 -5 -77 -10 -74 -15 9 -8 154 7 154 2 0 4 -36 3 -80z
m63 0 c1 -30 -1 -57 -7 -60 -6 -3 -12 24 -15 67 -4 55 -2 69 7 60 6 -7 13 -37
15 -67z m-762 60 c0 -6 -11 -8 -27 -4 -40 10 -41 14 -5 14 18 0 32 -5 32 -10z
m230 -14 c-5 -5 -10 -34 -10 -64 0 -33 -4 -51 -10 -47 -10 6 -14 107 -5 117 3
2 12 5 20 5 11 0 12 -4 5 -11z m982 2 c-16 -16 -15 -28 3 -28 12 0 13 -4 5
-19 -5 -11 -19 -19 -30 -18 -20 1 -29 17 -9 17 5 0 8 4 5 9 -7 10 -25 9 -44
-3 -19 -12 -27 1 -12 19 8 10 17 12 24 6 12 -10 50 11 39 22 -3 4 2 7 12 7 15
0 16 -3 7 -12z m-1222 -9 c13 -9 13 -10 -1 -6 -9 3 -22 0 -28 -6 -8 -8 -11 -7
-11 6 0 19 18 22 40 6z m-390 -49 c0 -5 -5 -10 -11 -10 -5 0 -7 5 -4 10 3 6 8
10 11 10 2 0 4 -4 4 -10z m1675 -60 c-10 -11 -22 -20 -28 -20 -5 0 1 9 14 20
31 25 37 25 14 0z m-1815 -30 c0 -5 -5 -10 -11 -10 -5 0 -7 5 -4 10 3 6 8 10
11 10 2 0 4 -4 4 -10z m1753 3 c-7 -2 -19 -2 -25 0 -7 3 -2 5 12 5 14 0 19 -2
13 -5z m-1013 -60 c-10 -16 -11 -15 -6 7 3 14 6 32 7 40 1 8 4 5 6 -7 2 -12
-1 -30 -7 -40z m-190 2 c0 -8 -2 -15 -4 -15 -2 0 -6 7 -10 15 -3 8 -1 15 4 15
6 0 10 -7 10 -15z"/>
<path d="M1025 860 c-3 -5 -1 -10 4 -10 6 0 11 5 11 10 0 6 -2 10 -4 10 -3 0
-8 -4 -11 -10z"/>
<path d="M1132 587 c1 -44 14 -71 29 -61 5 3 4 14 -2 26 -6 12 -7 18 -1 14 21
-13 17 20 -4 41 l-23 21 1 -41z"/>
<path d="M1339 381 c-7 -38 0 -81 11 -81 4 0 7 8 6 17 0 12 7 19 22 21 19 3
22 -1 22 -35 1 -36 2 -37 15 -19 8 11 15 25 15 30 0 6 -4 5 -9 -3 -7 -11 -10
-9 -13 9 -2 16 -12 26 -28 30 -18 4 -27 14 -31 35 l-5 30 -5 -34z"/>
<path d="M1373 385 c0 -8 4 -15 9 -15 4 0 8 7 8 15 0 8 -4 15 -8 15 -5 0 -9
-7 -9 -15z"/>
<path d="M1411 385 c1 -19 18 -51 18 -35 0 8 -4 22 -9 30 -5 8 -9 11 -9 5z"/>
<path d="M1367 215 c6 -17 25 -15 31 3 2 7 -5 12 -17 12 -14 0 -19 -5 -14 -15z"/>
<path d="M181 213 c0 -4 4 -17 9 -28 8 -19 9 -19 9 2 1 12 -3 25 -9 28 -5 3
-10 3 -9 -2z"/>
<path d="M261 71 c26 -21 35 -20 26 4 -4 8 -16 15 -28 15 -21 0 -21 0 2 -19z"/>
</g>
</svg>
