<?xml version="1.0" standalone="no"?>
<!DOCTYPE svg PUBLIC "-//W3C//DTD SVG 20010904//EN"
 "http://www.w3.org/TR/2001/REC-SVG-20010904/DTD/svg10.dtd">
<svg version="1.0" xmlns="http://www.w3.org/2000/svg"
 width="360.000000pt" height="360.000000pt" viewBox="0 0 360.000000 360.000000"
 preserveAspectRatio="xMidYMid meet">

<g transform="translate(0.000000,360.000000) scale(0.100000,-0.100000)"
fill="#000000" stroke="none">
<path d="M2810 2490 l-123 -80 -365 0 c-259 0 -377 -4 -406 -12 -84 -26 -98
-51 -226 -408 -64 -179 -121 -325 -127 -325 -17 0 -233 214 -233 231 0 8 11
37 25 64 l25 50 95 0 c139 0 136 -3 184 142 23 68 41 129 41 136 0 9 -102 12
-474 12 l-473 0 -34 -23 c-62 -41 -69 -68 -69 -284 0 -106 4 -193 9 -193 4 0
35 29 68 65 33 36 65 65 71 65 6 0 214 -201 463 -447 248 -247 459 -448 468
-448 12 0 41 74 120 310 57 171 109 313 115 317 6 4 113 8 238 8 225 0 228 0
242 23 19 29 96 223 96 242 0 13 -34 15 -234 15 -155 0 -237 4 -241 11 -8 12
32 110 49 121 6 4 144 8 306 8 162 0 301 4 308 8 10 7 222 452 222 467 0 13
-26 -1 -140 -75z m-23 -107 c-2 -5 -25 -56 -52 -115 l-49 -108 -291 0 c-210 0
-297 -4 -315 -13 -25 -12 -71 -92 -88 -152 -5 -17 -5 -42 1 -58 17 -50 47 -57
257 -57 104 0 190 -4 190 -8 0 -5 -11 -35 -24 -68 l-24 -59 -224 -5 c-189 -4
-228 -8 -250 -22 -22 -15 -40 -60 -118 -293 -50 -151 -95 -275 -98 -275 -4 0
-192 185 -417 411 -226 226 -422 417 -437 425 -34 18 -66 18 -100 0 l-28 -15
0 105 c0 98 2 107 25 129 l24 25 420 0 420 0 -23 -67 -23 -68 -101 -5 c-120
-6 -133 -14 -182 -121 -45 -97 -40 -108 118 -257 71 -66 137 -121 148 -123 36
-6 74 11 88 39 7 15 62 161 120 325 59 165 113 311 121 327 29 56 57 60 463
60 l367 0 40 24 c47 28 47 28 42 19z"/>
</g>
</svg>
